<?xml version="1.0" standalone="no"?><!DOCTYPE svg PUBLIC "-//W3C//DTD SVG 1.1//EN" "http://www.w3.org/Graphics/SVG/1.1/DTD/svg11.dtd"><svg t="1537109575608" class="icon" style="" viewBox="0 0 1024 1024" version="1.1" xmlns="http://www.w3.org/2000/svg" p-id="2439" xmlns:xlink="http://www.w3.org/1999/xlink" width="64" height="64"><defs><style type="text/css"></style></defs><path d="M762.220089 181.213867H263.145244c-45.943467 0-83.182933 11.184356-83.182933 46.705777v21.435734h665.429333v-21.435734c0.011378-35.521422-37.228089-46.705778-83.171555-46.705777" p-id="2440" fill="#8a8a8a"></path><path d="M687.138133 226.668089L670.913422 110.660267c-3.151644-22.664533-24.439467-41.176178-47.320178-41.176178H401.783467c-22.880711 0-44.157156 18.511644-47.354311 41.210311l-16.224712 116.0192c-3.163022 22.664533 12.970667 18.432 35.851378 18.432h277.253689c22.892089-0.022756 39.025778 4.221156 35.828622-18.477511z m-296.493511-23.529245l12.811378-91.682133h218.453333l12.811378 91.682133H390.644622zM776.0896 301.215289H249.287111c-30.492444 0-53.202489 24.860444-50.449067 55.227733l45.431467 499.484445c2.742044 30.378667 29.980444 55.227733 60.461511 55.227733h415.880534c30.492444 0 57.730844-24.860444 60.461511-55.227733l45.431466-499.484445c2.787556-30.378667-19.933867-55.227733-50.414933-55.227733zM401.783467 853.333333h-107.713423L258.161778 365.511111h143.610311V853.333333z m182.385777 0H440.490667V365.511111h143.678577V853.333333z m146.067912 0h-106.643912V365.511111h142.188089L730.237156 853.333333z" p-id="2441" fill="#8a8a8a"></path></svg>