<?xml version="1.0" standalone="no"?><!DOCTYPE svg PUBLIC "-//W3C//DTD SVG 1.1//EN" "http://www.w3.org/Graphics/SVG/1.1/DTD/svg11.dtd"><svg t="1537109624356" class="icon" style="" viewBox="0 0 1024 1024" version="1.1" xmlns="http://www.w3.org/2000/svg" p-id="3919" xmlns:xlink="http://www.w3.org/1999/xlink" width="64" height="64"><defs><style type="text/css"></style></defs><path d="M703.921014 569.333776 214.380966 569.333776c-20.438118 0-37.007586-16.570485-37.007586-37.006568 0-20.438118 16.56845-37.006568 37.007586-37.006568L703.921014 495.320639c20.438118 0 37.007586 16.56845 37.007586 37.006568C740.9286 552.763291 724.359133 569.333776 703.921014 569.333776z" p-id="3920" fill="#8a8a8a"></path><path d="M494.118427 359.530171 214.380966 359.530171c-20.438118 0-37.007586-16.570485-37.007586-37.007586s16.56845-37.006568 37.007586-37.006568l279.736444 0c20.439136 0 37.007586 16.569467 37.007586 37.006568S514.557563 359.530171 494.118427 359.530171z" p-id="3921" fill="#8a8a8a"></path><path d="M950.74238 357.520548c0-20.437101-16.56845-37.007586-37.006568-37.007586-20.426926 0-36.988253 16.554204-37.005551 36.976042l-0.013228 0 0 567.72913c0 13.608453-11.06768 24.672063-24.671045 24.672063L136.191884 949.890198c-13.604383 0-24.672063-11.06361-24.672063-24.672063l0-785.78796c0-13.602348 11.066662-24.671045 24.672063-24.671045l497.796291 0 0-0.033579c0.011193 0 0.022386 0.001018 0.033579 0.001018 20.438118 0 37.006568-16.56845 37.006568-37.006568 0-20.439136-16.56845-37.006568-37.006568-37.006568-0.218769 0-0.429398 0.029508-0.645114 0.032561L136.191884 40.745993c-54.415498 0-98.6852 44.269701-98.6852 98.6852l0 785.78796c0 54.416516 44.269701 98.6852 98.6852 98.6852l715.854104 0c54.415498 0 98.684182-44.268684 98.684182-98.6852L950.73017 357.760686C950.731187 357.680301 950.74238 357.602968 950.74238 357.520548z" p-id="3922" fill="#8a8a8a"></path><path d="M668.953577 359.530171c-9.471174 0-18.941331-3.611216-26.16885-10.839753-14.450969-14.450969-14.450969-37.882662 0-52.335666L922.523205 16.619326c14.453004-14.453004 37.88368-14.453004 52.337701 0 14.450969 14.450969 14.450969 37.882662 0 52.335666L695.123445 348.690418C687.895926 355.918955 678.424751 359.530171 668.953577 359.530171z" p-id="3923" fill="#8a8a8a"></path></svg>