<?xml version="1.0" standalone="no"?><!DOCTYPE svg PUBLIC "-//W3C//DTD SVG 1.1//EN" "http://www.w3.org/Graphics/SVG/1.1/DTD/svg11.dtd"><svg t="1536904752742" class="icon" style="" viewBox="0 0 1024 1024" version="1.1" xmlns="http://www.w3.org/2000/svg" p-id="1981" xmlns:xlink="http://www.w3.org/1999/xlink" width="64" height="64"><defs><style type="text/css"></style></defs><path d="M120.46041 371.271474A108.199352 108.199352 0 0 1 192.721297 460.861664v217.576175a107.021881 107.021881 0 0 1-96.373447 102.388788A107.021881 107.021881 0 0 1 0 678.437839V460.861664c0-38.395796 24.086962-63.992993 48.173925-89.59019A552.105944 552.105944 0 0 1 168.634335 153.695298a425.834971 425.834971 0 0 1 337.294266-153.583182 468.428707 468.428707 0 0 1 349.324949 153.583182 552.105944 552.105944 0 0 1 120.460409 217.576176c24.086962 25.597197 48.173925 51.194394 48.173925 89.59019v217.576175a106.740312 106.740312 0 0 1-84.317167 102.388788c-12.05628 25.597197-60.230205 191.978978-313.181707 204.777577-12.05628 25.597197-36.143242 38.395796-84.342764 38.395796s-84.317167-25.597197-84.317167-63.992993c0-25.597197 36.143242-51.194394 84.317167-51.194394 36.143242 0 72.286485 12.798599 84.317167 38.395796 216.833857-12.798599 265.007782-140.784584 277.064062-179.18038-48.173925-12.798599-72.286485-38.395796-72.286485-89.59019V460.861664a92.14991 92.14991 0 0 1 72.286485-89.59019A532.268117 532.268117 0 0 0 807.054028 204.889693c-84.317167-76.791591-180.690614-127.985986-301.151024-127.985986-108.40413 0-204.777577 51.194394-289.094745 127.985986a532.268117 532.268117 0 0 0-96.373447 166.381781z" fill="#8a8a8a" p-id="1982"></path></svg>